<?xml version="1.0" standalone="no"?>
<!DOCTYPE svg PUBLIC "-//W3C//DTD SVG 20010904//EN"
 "http://www.w3.org/TR/2001/REC-SVG-20010904/DTD/svg10.dtd">
<svg version="1.0" xmlns="http://www.w3.org/2000/svg"
 width="1280.000000pt" height="720.000000pt" viewBox="0 0 1280.000000 720.000000"
 preserveAspectRatio="xMidYMid meet">
<metadata>
Created by potrace 1.16, written by Peter Selinger 2001-2019
</metadata>
<g transform="translate(0.000000,720.000000) scale(0.100000,-0.100000)"
fill="#000000" stroke="none">
<path d="M0 3600 l0 -3600 1870 0 1870 0 0 45 0 45 93 -1 c50 0 216 -4 369 -8
292 -8 290 -7 345 -60 22 -21 29 -21 428 -21 231 0 405 4 405 9 0 12 23 20 78
27 26 3 47 6 48 7 1 1 4 16 8 32 6 28 5 29 -9 11 -8 -11 -18 -17 -21 -13 -4 4
-13 2 -21 -4 -7 -6 -13 -8 -13 -3 0 5 -4 2 -9 -6 -6 -8 -25 -14 -45 -14 -21 0
-31 -3 -23 -8 6 -4 8 -8 4 -8 -12 0 -71 33 -75 43 -2 4 -18 7 -35 7 -17 0 -39
7 -49 17 -17 15 -18 15 -18 0 0 -10 -4 -17 -10 -17 -18 0 -12 77 7 84 16 7
332 -3 344 -10 10 -6 81 48 72 56 -4 4 -98 13 -208 19 -526 31 -1451 112
-1481 130 -16 9 -12 11 24 12 23 1 48 2 55 3 6 1 18 -4 25 -11 7 -7 31 -13 52
-13 21 0 45 -3 54 -6 11 -4 16 0 16 13 0 16 15 21 103 37 56 10 181 38 277 63
157 40 183 44 250 39 354 -28 537 -37 1025 -50 789 -21 889 -25 985 -35 121
-13 325 -22 245 -11 -94 13 -358 39 -380 38 -11 -1 -65 0 -120 2 -70 2 -89 5
-65 9 19 4 -64 5 -185 3 -368 -8 -1175 24 -1468 57 -66 7 -84 14 -110 37 -18
16 -33 32 -35 37 -2 4 -10 7 -18 7 -8 0 -14 3 -14 8 0 4 -21 31 -47 59 -79 86
-85 94 -79 110 4 9 -1 17 -14 20 -11 3 -20 12 -20 20 0 8 -4 11 -10 8 -6 -3
-10 1 -10 9 0 9 -8 16 -19 16 -14 0 -20 9 -23 38 -7 53 8 80 90 168 42 45 76
90 79 106 3 16 10 31 14 34 5 3 7 10 4 15 -4 5 1 9 10 9 9 0 13 4 10 10 -9 14
22 55 51 69 45 20 135 24 179 8 122 -45 335 -109 440 -132 136 -30 306 -67
410 -90 109 -25 403 -62 585 -75 91 -6 216 -15 279 -21 62 -5 116 -8 118 -5
13 13 55 659 58 881 1 125 -19 432 -28 442 -1 1 -20 3 -42 5 l-39 3 3 -50 c4
-63 5 -65 47 -65 19 0 34 -4 34 -8 0 -4 -15 -6 -34 -4 l-34 4 3 -138 c4 -134
3 -135 -4 -38 -5 56 -11 117 -15 136 l-6 35 -83 11 -82 10 84 -2 83 -1 -6 54
c-4 30 -8 56 -9 57 -1 1 -47 5 -102 8 -55 4 -120 11 -145 17 -66 13 -211 26
-327 28 l-103 2 0 -38 c0 -72 7 -82 59 -86 l46 -3 -47 -2 -48 -2 0 -320 c0
-176 0 -323 0 -327 0 -5 21 -11 47 -14 l48 -6 -52 -1 -53 -2 0 -60 0 -59 148
-4 147 -3 -147 -2 -146 -2 -6 -72 c-22 -273 -25 -288 -19 -119 3 90 7 176 9
190 2 14 7 197 10 405 7 362 6 380 -11 392 -10 8 -13 14 -7 14 18 0 15 49 -18
315 -17 132 -29 256 -29 275 2 48 3 38 35 -226 l28 -231 175 -7 c97 -3 212
-13 256 -21 44 -8 119 -18 166 -21 l86 -6 -8 53 c-5 30 -11 68 -15 84 -4 21
-3 27 5 20 6 -6 15 -41 20 -79 5 -37 11 -69 13 -71 2 -1 21 -5 44 -8 l41 -7
-23 113 c-12 61 -34 159 -49 217 -16 63 -32 168 -40 265 -8 88 -18 174 -23
190 -23 74 -49 125 -94 185 -27 36 -51 75 -53 88 -3 12 -7 33 -10 46 -6 31
-64 93 -140 149 -75 55 -155 134 -155 153 0 8 -27 67 -59 132 -85 165 -142
326 -110 307 5 -4 18 -1 27 7 27 21 79 48 94 48 16 0 108 83 108 97 0 5 14 7
31 5 20 -3 30 -1 26 6 -10 14 27 22 109 22 58 0 77 4 98 21 l28 22 26 -22 c34
-26 70 -46 102 -56 18 -5 14 0 -15 20 -22 15 -43 33 -48 41 -4 7 -13 19 -20
26 -12 13 -36 61 -72 141 -10 21 -27 43 -39 49 -45 23 -95 87 -101 131 -17
119 8 215 66 255 35 24 41 58 16 74 -7 4 -18 12 -26 17 -25 16 -30 108 -14
236 9 66 17 138 18 160 1 22 5 48 9 58 3 9 8 24 11 32 6 21 18 19 51 -11 31
-29 99 -63 127 -64 9 0 22 -11 28 -24 10 -22 61 -54 113 -70 16 -6 17 -4 6 9
-7 9 -19 14 -27 11 -9 -4 -11 -1 -7 6 5 7 3 8 -6 3 -8 -5 -11 -4 -7 2 4 6 -2
18 -13 28 -11 10 -20 22 -20 28 0 5 20 -9 45 -32 24 -22 53 -41 63 -41 25 0
62 36 62 60 0 11 4 20 9 20 16 0 50 -51 63 -91 11 -38 18 -46 30 -33 11 10
-34 104 -59 123 -12 11 -23 22 -23 27 0 17 63 -53 78 -86 12 -27 17 -31 20
-16 2 10 -4 36 -13 56 -15 32 -29 44 -89 71 -39 18 -89 34 -111 36 -22 2 -54
11 -72 19 -17 7 -35 14 -40 14 -4 0 -8 11 -8 25 0 23 4 25 45 25 62 0 138 -22
188 -54 44 -28 143 -122 140 -134 -1 -4 4 -20 10 -35 16 -37 15 -53 -4 -127
-8 -34 -14 -64 -11 -66 10 -11 56 17 77 46 25 36 39 113 21 124 -15 10 -14 53
2 59 7 4 6 6 -4 6 -11 1 -18 13 -22 36 -3 19 -13 42 -21 50 -41 42 -149 114
-173 116 -5 1 -7 5 -5 10 1 5 -8 9 -20 10 -13 0 -36 3 -53 5 -16 2 -60 6 -97
8 -38 2 -72 4 -76 5 -5 0 -8 39 -8 85 1 95 19 131 61 120 17 -4 24 0 28 16 3
12 10 19 16 15 8 -4 8 2 1 19 -8 23 -6 28 23 42 18 9 50 32 72 50 22 18 53 36
68 39 15 4 25 10 23 13 -13 12 62 45 105 46 39 1 45 4 41 19 -4 16 0 18 29 12
19 -3 43 -8 54 -10 11 -2 20 -4 20 -5 0 -7 42 -7 51 1 14 11 74 1 74 -13 0 -6
7 -8 14 -5 10 4 13 1 10 -8 -7 -18 31 -38 76 -39 23 -1 35 -6 36 -16 2 -30 4
-35 12 -24 5 8 16 7 37 -3 30 -14 30 -14 3 -8 -16 3 -28 1 -28 -4 0 -11 17
-17 77 -26 24 -4 46 -12 49 -17 5 -7 2 -8 -6 -3 -8 5 -11 3 -8 -6 2 -7 13 -16
24 -19 26 -7 74 -45 74 -59 0 -6 3 -11 8 -11 27 0 47 -101 58 -292 5 -85 3
-117 -10 -160 l-17 -54 -77 3 c-42 1 -103 5 -134 8 -46 5 -68 2 -104 -15 -26
-11 -45 -22 -43 -24 2 -2 60 -6 129 -9 80 -4 120 -3 110 3 -13 9 -13 10 1 10
9 0 19 -3 23 -7 8 -9 14 -10 51 -12 33 -1 32 -24 -2 -65 -36 -42 -49 -76 -79
-208 -42 -181 -73 -235 -201 -352 -59 -54 -157 -136 -218 -182 -60 -46 -143
-119 -183 -163 l-72 -80 -3 -188 c-2 -176 0 -190 19 -223 33 -53 34 -82 14
-260 -17 -156 -31 -229 -50 -275 -5 -11 -12 -30 -15 -42 -3 -13 -20 -36 -36
-53 -17 -16 -26 -30 -21 -30 12 0 79 45 112 74 14 13 42 35 62 50 l37 28 -6
-39 c-3 -21 -14 -52 -24 -69 -10 -17 -16 -34 -12 -37 3 -4 -6 -24 -20 -44 -30
-45 -67 -150 -67 -193 0 -27 3 -30 29 -30 17 0 33 -5 36 -11 5 -7 -5 -8 -29
-4 l-36 7 0 -44 c0 -43 34 -174 64 -248 52 -127 77 -197 101 -287 25 -89 31
-103 49 -103 38 0 48 13 35 46 -29 72 -58 177 -45 163 7 -7 26 -55 41 -106
l28 -91 36 5 c20 3 99 24 176 45 234 66 278 77 338 84 48 6 57 10 52 23 -4 9
-15 54 -26 101 -11 47 -52 165 -91 263 -66 165 -73 177 -97 178 -25 0 -25 1
-4 9 l22 9 -19 43 c-14 32 -26 45 -47 49 -24 6 -25 7 -5 8 28 1 27 4 -30 139
-22 51 -38 95 -35 98 4 4 19 -29 90 -199 8 -18 19 -27 34 -27 13 0 23 -5 23
-11 0 -6 -7 -9 -15 -5 -20 7 -19 -3 5 -58 18 -44 21 -46 62 -48 l43 -1 -41 -6
-42 -6 50 -115 c65 -151 102 -258 124 -358 l17 -82 40 0 40 0 -8 68 c-4 37 -9
86 -11 109 -7 73 -113 341 -152 386 -8 9 -12 17 -8 17 4 0 2 9 -4 21 -7 11 -9
23 -7 26 3 3 16 -17 28 -43 12 -27 41 -88 64 -136 54 -109 92 -226 100 -303 3
-33 8 -79 11 -102 l5 -43 100 0 c64 0 99 -4 99 -11 0 -7 -31 -8 -102 -3 l-101
7 6 -24 c4 -13 7 -40 7 -61 l0 -36 95 -7 c52 -4 95 -10 95 -14 0 -3 -40 -5
-89 -3 l-90 3 6 -103 c5 -99 -5 -244 -28 -376 -19 -108 -22 -60 -4 68 16 120
22 360 9 393 -4 11 -17 17 -36 17 l-29 0 6 -67 c5 -51 -1 -121 -24 -278 -29
-196 -48 -293 -50 -253 -1 10 13 104 29 210 29 183 37 316 23 366 -5 23 -9 23
-67 17 -60 -7 -125 -22 -300 -71 -48 -14 -90 -23 -92 -21 -2 2 15 9 38 16 24
7 61 19 83 27 66 23 253 64 288 64 19 0 36 2 39 5 3 3 0 29 -7 58 -11 51 -12
52 -51 55 -47 3 -130 -14 -289 -61 -66 -19 -154 -43 -195 -53 -41 -9 -77 -18
-78 -20 -2 -1 2 -28 8 -59 l12 -57 51 6 c36 4 46 3 32 -3 -11 -5 -32 -10 -46
-10 -14 -1 -28 -3 -31 -6 -2 -3 1 -42 7 -88 17 -117 26 -236 16 -212 -4 11
-11 52 -15 90 -4 39 -11 101 -17 139 l-11 68 -31 -6 c-17 -3 -31 -7 -32 -9 -1
-1 4 -48 11 -104 18 -135 32 -415 22 -429 -4 -6 -2 -16 5 -24 10 -10 8 -12 -6
-6 -19 6 38 -68 82 -108 21 -19 21 -19 21 7 0 21 -5 27 -22 28 -19 1 -20 2 -4
6 17 5 18 12 12 95 -4 49 -10 104 -13 121 -4 23 -2 29 5 22 6 -5 16 -57 22
-115 6 -58 13 -106 14 -107 1 -1 30 4 65 13 35 8 66 13 68 10 5 -5 -50 -22
-99 -31 -36 -6 -38 -8 -38 -43 0 -46 25 -86 49 -77 33 14 81 23 81 15 0 -5
-18 -11 -41 -15 -22 -4 -39 -11 -37 -15 2 -5 56 -68 121 -139 l119 -131 91 -1
c51 0 108 -2 127 -4 19 -2 68 -6 108 -9 176 -15 208 -70 135 -234 -36 -83 -37
-83 -19 -114 18 -29 17 -76 -1 -124 -5 -14 -3 -16 13 -10 10 4 143 32 294 63
198 39 288 53 322 49 l46 -5 -8 30 c-17 58 -90 100 -264 153 -65 20 -125 36
-134 36 -12 0 -14 -10 -9 -61 4 -33 3 -58 -2 -55 -5 3 -11 31 -13 62 -3 31
-10 59 -17 64 -10 5 -9 9 3 13 11 4 16 19 16 47 0 33 -4 43 -22 51 l-23 10 22
-5 c13 -2 26 1 29 6 13 21 22 -18 14 -62 -9 -50 -8 -53 23 -57 24 -4 200 -57
262 -80 22 -8 54 -26 72 -39 17 -13 36 -24 41 -24 5 0 15 18 22 40 12 37 12
40 -11 60 -51 43 -138 90 -188 102 -69 16 -65 27 6 16 62 -10 144 -51 182 -92
42 -45 52 -35 45 42 -3 37 -10 84 -16 105 -5 24 -6 43 0 50 16 21 11 80 -11
140 -12 31 -25 57 -29 57 -5 0 -8 7 -8 15 0 8 -3 15 -7 15 -5 0 -9 11 -9 25
-1 14 -13 40 -27 58 -17 23 -22 38 -16 52 4 11 8 32 8 48 1 24 -2 27 -36 28
-176 7 -199 13 -74 19 l124 5 16 42 c10 30 12 46 5 53 -6 6 -56 13 -112 17
-60 3 -99 10 -95 16 3 5 47 6 112 2 l107 -7 17 89 c34 173 40 219 38 338 -1
156 -8 179 -49 183 -18 2 -32 8 -32 13 0 6 14 9 32 7 27 -3 33 1 38 22 l6 25
8 -24 c8 -23 9 -23 124 -17 142 7 237 19 275 34 29 12 29 20 -6 67 -14 18 -28
20 -196 21 -134 1 -184 -2 -191 -11 -6 -7 -20 -11 -31 -8 -18 5 -19 6 -2 18
31 23 30 212 -2 459 -14 113 -32 226 -39 249 l-12 42 -50 -2 c-35 -2 -45 0
-34 7 8 5 23 10 33 10 10 0 20 7 23 15 8 20 -30 132 -81 240 -59 123 -115 246
-115 250 0 2 -13 26 -29 53 -24 42 -47 115 -66 217 -2 11 -13 30 -23 41 -29
30 -38 99 -18 129 22 33 20 88 -4 136 l-21 40 27 55 c15 30 24 57 21 61 -4 3
-11 -6 -16 -20 -18 -48 -27 -35 -26 39 0 41 1 74 2 74 7 0 43 -36 43 -42 0 -5
-7 -8 -16 -8 -9 0 -14 -5 -12 -12 7 -21 26 -20 47 3 16 18 24 20 33 11 9 -9 8
-16 -5 -30 -9 -10 -17 -26 -17 -35 0 -9 -5 -19 -10 -22 -6 -3 -10 -17 -10 -31
0 -35 18 -20 26 21 6 35 48 84 61 71 4 -4 0 -19 -10 -34 -9 -15 -24 -44 -34
-65 -9 -20 -21 -36 -27 -35 -16 4 -17 -10 -5 -57 21 -81 54 -150 81 -173 28
-24 37 -55 18 -67 -16 -10 -11 -53 9 -72 23 -23 33 -65 22 -95 -12 -34 -23
-139 -11 -110 12 28 27 28 58 0 l24 -23 -7 63 c-4 37 -3 68 3 75 13 17 23 87
11 87 -5 0 -9 7 -9 16 0 9 -6 14 -13 11 -7 -2 -11 -16 -9 -35 3 -24 -1 -32
-12 -32 -9 0 -16 7 -16 15 0 8 -4 15 -10 15 -5 0 -14 9 -20 21 -14 25 2 49 32
49 10 0 17 4 14 9 -3 5 1 25 9 45 20 47 19 54 -7 52 -23 -1 -33 4 -69 37 -10
9 -22 16 -26 15 -5 -1 -10 7 -12 17 -2 13 1 16 13 12 26 -10 27 9 1 29 -14 10
-25 25 -25 32 0 22 28 68 69 116 25 29 38 52 34 62 -4 10 2 17 16 21 18 5 19
8 9 21 -11 13 -10 15 10 10 12 -4 22 -4 22 -2 0 9 -56 27 -81 25 -14 0 -34 6
-45 14 -19 15 -19 15 1 31 19 16 19 16 -6 10 -35 -8 -51 12 -46 60 3 26 12 44
29 57 25 19 58 15 58 -7 0 -7 6 -13 14 -13 11 0 10 8 -5 36 -25 46 -24 51 6
51 16 0 25 6 25 15 0 8 -6 15 -14 15 -9 0 -12 8 -8 25 4 22 1 25 -22 25 -18 0
-30 7 -36 23 -5 12 -9 16 -9 10 -1 -17 -36 -17 -50 0 -11 14 -8 127 4 147 9
15 -14 40 -31 33 -8 -3 -14 0 -14 6 0 6 7 11 15 11 18 0 20 21 3 38 -17 17 -2
28 17 12 12 -10 15 -10 15 3 0 9 -4 19 -10 22 -5 3 -10 11 -10 16 0 6 5 7 11
4 7 -5 9 8 4 41 -12 90 -17 105 -45 137 -39 45 -44 70 -24 112 13 29 19 33 30
24 8 -7 12 -20 9 -30 -7 -20 5 -25 21 -9 6 6 26 2 54 -10 l45 -20 -30 22 c-16
13 -38 28 -50 33 -16 9 -19 19 -17 49 3 26 0 36 -7 32 -6 -4 -11 -14 -11 -22
0 -16 -16 -19 -25 -4 -3 5 -7 25 -9 44 -1 21 -11 43 -23 53 -12 10 -31 26 -42
35 -12 10 -21 28 -20 40 0 13 3 17 6 11 2 -7 9 -13 15 -13 26 0 77 -52 84 -84
3 -19 12 -37 19 -40 32 -12 -19 95 -54 114 -25 13 -38 69 -20 81 12 7 11 11
-3 26 -13 12 -18 13 -18 4 0 -8 -6 -11 -15 -7 -11 4 -15 -1 -15 -19 0 -30 -11
-32 -35 -5 -11 12 -13 20 -6 20 8 0 9 5 1 19 -5 11 -10 28 -10 38 0 15 4 14
20 -7 12 -15 7 0 -12 37 -17 35 -29 66 -25 69 3 4 23 -4 44 -17 21 -13 41 -23
46 -21 4 1 7 -3 7 -9 0 -5 4 -8 10 -4 18 11 -1 32 -53 60 -79 42 -86 50 -80
95 5 32 2 40 -19 54 -20 13 -27 28 -31 69 -5 44 -12 57 -44 84 -21 18 -55 35
-75 38 -21 4 -38 10 -38 15 0 4 -12 19 -27 34 -21 21 -22 25 -7 20 15 -5 15
-3 -3 10 -13 10 -23 25 -23 36 0 12 -5 17 -18 14 -11 -3 -30 9 -52 32 l-35 37
32 -23 c51 -36 61 -19 16 28 -22 23 -46 42 -53 42 -7 0 -10 7 -6 15 7 18 -48
80 -62 71 -6 -3 -15 1 -22 9 -15 18 -44 20 -34 3 4 -7 -3 -3 -15 10 -12 12
-26 20 -31 17 -5 -3 -11 -1 -15 5 -3 5 1 10 9 10 25 0 19 29 -14 62 -17 16
-27 34 -24 40 5 8 -7 9 -36 5 -41 -5 -90 8 -90 25 0 4 -9 8 -20 8 -11 0 -20 4
-20 8 0 5 -25 21 -55 36 -31 15 -53 30 -51 35 6 9 -58 41 -83 41 -10 0 -25 7
-32 17 -26 30 -67 41 -117 30 -34 -7 -60 -6 -96 3 -48 12 -50 12 -72 -14 -26
-29 -36 -31 -98 -14 -59 16 -204 -3 -226 -30 -9 -10 -21 -17 -27 -15 -6 2 -20
-4 -31 -15 -11 -11 -49 -34 -85 -52 -77 -38 -179 -135 -150 -143 13 -3 14 -5
3 -6 -8 -1 -26 -24 -39 -51 -17 -38 -29 -50 -45 -50 -12 0 -26 -4 -32 -10 -5
-5 -39 -13 -74 -16 -75 -7 -125 -26 -140 -55 -6 -11 -15 -17 -21 -14 -5 4 -8
3 -7 -2 2 -5 -10 -33 -25 -61 -19 -35 -35 -52 -47 -52 -11 0 -34 -14 -52 -30
l-33 -30 29 6 c21 5 27 4 22 -5 -4 -6 -13 -11 -19 -11 -18 -1 -74 -55 -92 -90
-9 -17 -22 -33 -29 -36 -9 -4 -12 -24 -10 -72 3 -69 -11 -117 -41 -142 -14
-11 -14 -10 0 16 16 31 13 43 -8 26 -8 -7 -28 -13 -45 -15 -17 -2 -37 -9 -46
-16 -12 -10 -16 -8 -21 8 -3 12 -3 25 0 31 3 5 -1 10 -10 10 -9 0 -14 4 -10 9
3 5 1 13 -5 16 -8 5 -8 11 0 20 9 10 8 20 -3 37 -8 13 -18 44 -21 70 -4 26
-11 50 -16 53 -5 3 -15 25 -21 48 -6 23 -15 44 -20 48 -5 3 -13 26 -17 51 -5
25 -21 68 -37 94 -15 27 -39 69 -52 94 -88 157 -166 243 -258 286 -230 107
-334 106 -500 -6 -279 -189 -455 -570 -455 -987 0 -155 -30 -282 -106 -451
-34 -75 -80 -110 -163 -122 -65 -11 -136 -34 -136 -47 0 -4 -6 -7 -12 -7 -7 1
-13 -2 -13 -7 0 -5 5 -9 10 -9 6 0 10 -4 10 -10 0 -5 -9 -10 -20 -10 -11 0
-20 -4 -20 -10 0 -5 -7 -10 -15 -10 -9 0 -34 -9 -56 -20 -30 -16 -45 -33 -59
-65 -11 -25 -24 -45 -30 -45 -5 0 -10 -7 -10 -15 0 -8 -4 -15 -10 -15 -5 0
-10 -6 -10 -13 0 -7 -6 -21 -13 -31 -13 -17 -15 -16 -47 13 -19 17 -45 31 -57
31 -20 0 -23 5 -23 39 0 22 -4 41 -9 43 -15 5 -17 186 -3 200 7 7 12 26 12 44
0 19 6 34 15 38 8 3 15 14 15 25 0 11 9 26 20 34 25 17 100 112 100 126 0 6 7
11 15 11 16 0 20 16 6 24 -5 3 -14 -1 -21 -9 -7 -8 -21 -15 -31 -15 -26 0 -25
44 1 70 28 28 62 90 50 90 -6 0 -10 7 -10 15 0 10 -18 1 -57 -26 -32 -22 -67
-39 -78 -37 -23 3 -35 48 -12 48 8 0 21 18 30 40 9 23 22 40 31 40 9 0 16 5
16 10 0 6 -5 10 -11 10 -6 0 -9 6 -6 13 2 6 11 11 21 9 11 -2 16 4 16 20 0 13
12 34 25 47 14 13 25 27 25 33 0 5 12 20 28 33 40 35 19 42 -26 9 -45 -34
-126 -103 -184 -157 -22 -20 -45 -34 -50 -31 -6 4 -8 3 -5 -3 3 -5 -13 -22
-36 -37 -41 -26 -42 -26 -45 -6 -2 12 2 28 8 36 9 10 9 14 1 14 -7 0 -11 38
-11 120 0 73 4 120 10 120 6 0 10 18 10 40 0 22 -4 40 -10 40 -6 0 -10 33 -10
80 0 64 -3 80 -15 80 -11 0 -15 11 -15 40 0 29 4 40 15 40 12 0 15 16 15 80 0
47 -4 80 -10 80 -5 0 -10 18 -10 40 0 22 5 40 10 40 12 0 14 77 1 82 -4 2 -11
74 -14 161 -4 131 -3 157 9 157 11 0 14 18 14 80 l0 80 -1520 0 -1520 0 0
-3600z m4931 2823 c24 -21 46 -40 49 -44 3 -3 13 -8 23 -12 9 -3 17 -15 17
-24 0 -10 7 -28 15 -40 16 -23 12 -47 -14 -76 -14 -17 -14 -20 2 -32 27 -19
11 -48 -22 -40 -75 18 -121 17 -190 -4 -38 -12 -76 -27 -84 -35 -11 -12 -18
-11 -48 2 -19 8 -39 14 -45 13 -7 -1 -14 5 -18 14 -3 8 -17 15 -31 15 -14 0
-25 5 -25 10 0 6 -10 10 -21 10 -16 0 -20 5 -16 20 3 11 1 23 -5 26 -23 14 1
78 43 116 24 21 47 38 52 38 5 0 22 9 38 21 43 31 128 57 185 58 44 1 56 -4
95 -36z m-205 -420 c-4 -10 -4 -14 0 -10 9 9 44 -21 44 -38 0 -17 60 -35 116
-35 51 0 134 31 134 50 0 5 6 10 14 10 7 0 19 7 26 15 7 8 22 15 33 15 11 0
17 -3 14 -6 -4 -4 2 -14 12 -23 18 -16 38 -88 33 -123 -1 -10 2 -18 7 -18 4 0
6 -12 4 -27 l-5 -28 21 25 c11 14 21 29 21 34 0 5 2 7 5 4 8 -8 -24 -86 -57
-137 -31 -50 -39 -91 -11 -56 l16 20 -8 -20 c-7 -20 -8 -25 -20 -78 -3 -15
-10 -25 -16 -22 -5 4 -7 16 -4 28 4 14 -3 8 -19 -15 -15 -21 -34 -38 -44 -38
-23 0 -46 -49 -31 -67 9 -10 8 -13 -4 -13 -17 0 -16 -32 1 -38 24 -8 11 -22
-14 -16 -20 5 -25 3 -22 -7 3 -8 13 -13 22 -13 18 2 22 -11 5 -22 -6 -3 -15
-1 -20 7 -6 11 -12 10 -28 -5 -20 -18 -20 -43 0 -31 5 4 9 -1 9 -9 0 -8 -5
-18 -11 -21 -6 -4 -8 -13 -5 -21 3 -8 1 -14 -5 -14 -7 0 -9 10 -5 25 4 14 2
25 -3 25 -16 0 -28 -25 -25 -51 3 -20 -2 -28 -21 -37 -36 -17 -38 -16 -31 16
l6 27 -21 -24 c-17 -21 -22 -22 -30 -10 -5 7 -9 19 -9 25 0 16 -23 23 -59 19
-25 -3 -29 -1 -24 13 5 14 3 15 -7 5 -10 -9 -17 -10 -27 -2 -15 13 -18 69 -3
69 6 0 10 -9 10 -21 0 -33 20 -11 21 24 1 18 3 24 6 15 2 -10 9 -18 14 -18 5
0 8 4 7 9 -2 4 8 18 22 30 24 21 25 21 6 36 -11 8 -32 15 -48 15 -15 0 -29 6
-29 13 -3 29 3 55 23 95 15 30 27 42 43 42 46 0 61 44 18 53 -16 3 -52 29 -80
57 l-53 51 0 75 c0 72 17 127 52 172 16 19 41 15 34 -5z m179 -818 c-9 -19
-14 -58 -12 -89 2 -54 2 -55 25 -40 19 13 22 13 22 -1 0 -30 38 -10 53 28 9
24 27 13 20 -13 -7 -25 6 -25 113 -5 44 8 120 19 169 26 50 6 95 15 101 20 6
5 13 7 16 4 2 -3 49 2 104 10 54 8 102 15 105 15 4 0 3 -19 -1 -41 -7 -40 -22
-59 -46 -59 -12 0 -20 -37 -65 -302 l-22 -127 -61 -6 c-55 -6 -77 -2 -195 35
l-133 42 6 44 c14 105 72 167 217 230 99 44 135 64 113 64 -11 0 -309 -48
-340 -55 -18 -4 -23 -19 -38 -107 -9 -57 -26 -153 -37 -215 l-21 -112 -70 -7
c-47 -5 -65 -10 -56 -16 9 -7 7 -8 -7 -4 -11 3 -41 10 -66 15 -25 6 -54 13
-64 17 -12 5 -16 4 -11 -4 3 -6 -2 -15 -11 -21 -14 -8 -10 -10 17 -6 29 5 31
4 13 -4 -13 -6 -23 -15 -23 -20 0 -6 -12 -14 -27 -17 -23 -6 -24 -8 -10 -19
10 -7 17 -17 17 -24 0 -6 7 -11 16 -11 20 0 43 -28 44 -52 0 -10 3 -18 8 -18
4 0 18 -16 31 -35 13 -19 27 -32 32 -30 4 3 6 -4 4 -15 -5 -25 10 -17 44 23
14 17 47 47 73 68 27 21 44 40 38 44 -12 8 -1 66 17 84 12 12 15 10 20 -8 5
-21 23 -30 23 -11 0 6 5 10 11 10 7 0 9 -10 6 -26 -3 -20 -1 -24 12 -19 124
51 229 69 367 63 97 -4 117 -8 181 -37 41 -19 87 -50 110 -74 39 -41 83 -129
83 -164 -1 -10 -9 5 -19 34 -51 150 -163 221 -358 231 -83 4 -121 0 -200 -18
-107 -25 -203 -63 -203 -80 0 -6 -4 -9 -9 -5 -5 3 -22 -6 -37 -20 -34 -31 -28
-31 28 0 98 55 259 95 376 95 145 -1 276 -50 346 -132 33 -38 65 -114 67 -158
1 -23 2 -23 10 5 7 25 8 22 5 -18 -2 -26 -6 -50 -9 -53 -5 -5 -328 -63 -352
-64 -5 0 -17 21 -25 47 -20 62 -63 86 -138 79 -66 -6 -136 -45 -150 -84 -14
-40 6 -92 47 -119 18 -12 118 -50 222 -84 212 -68 287 -109 344 -188 67 -92
83 -233 42 -363 -28 -88 -89 -185 -139 -223 -20 -16 -35 -32 -32 -37 3 -4 -3
-8 -13 -8 -11 0 -28 -7 -39 -15 -17 -13 -17 -14 -1 -15 9 0 17 -4 17 -9 0 -4
-11 -6 -25 -3 -13 2 -53 -7 -87 -21 -155 -61 -372 -78 -498 -38 -160 50 -236
148 -248 318 -5 84 -31 71 201 108 169 27 173 27 166 21 -3 -3 -63 -15 -134
-27 -113 -19 -168 -39 -153 -55 3 -2 25 0 49 5 24 6 85 17 136 24 l92 13 7
-30 c9 -44 42 -86 78 -101 41 -17 126 -10 173 14 60 30 76 54 80 121 4 56 2
62 -25 89 -21 21 -58 38 -133 61 -307 93 -329 101 -375 136 -37 29 -49 33 -56
22 -8 -10 -9 -9 -5 4 3 9 -3 28 -14 41 -10 14 -27 45 -37 69 l-19 43 -17 -33
c-9 -17 -19 -32 -22 -32 -2 0 3 15 13 33 14 25 18 56 18 143 l0 111 -25 -7
c-19 -5 -29 -1 -44 17 -23 30 -18 35 35 38 42 3 61 18 56 45 -2 11 -13 14 -42
12 -81 -5 -85 -7 -85 -60 0 -26 5 -53 11 -59 12 -12 -31 -82 -92 -150 -21 -23
-52 -70 -70 -105 -17 -34 -55 -94 -83 -133 -57 -76 -76 -115 -96 -187 -7 -28
-18 -48 -26 -48 -13 0 -16 6 -18 40 -1 8 -11 16 -23 18 -18 3 -23 -1 -23 -20
0 -13 -4 -72 -10 -133 -5 -60 -14 -195 -20 -299 -6 -104 -17 -207 -25 -230
-20 -61 -28 -106 -18 -106 4 0 44 7 88 15 109 20 115 19 115 -7 0 -36 -11 -45
-73 -58 -46 -11 -61 -19 -75 -42 -9 -15 -20 -28 -25 -28 -5 0 -2 12 8 26 l17
27 -28 -6 c-203 -38 -227 -40 -286 -28 -32 6 -67 14 -76 17 -14 5 -15 4 -2 -5
13 -9 13 -11 -2 -11 -10 0 -18 -5 -18 -10 0 -6 -11 -15 -25 -22 -13 -6 -22
-14 -20 -18 2 -4 -1 -7 -8 -7 -7 0 -68 -15 -136 -33 -68 -17 -149 -36 -180
-40 -31 -5 -91 -15 -133 -23 -43 -8 -78 -10 -78 -6 0 5 4 9 8 9 4 0 9 13 10
29 2 28 0 29 -46 36 -93 12 -89 27 11 41 26 3 50 10 53 15 3 5 10 7 15 4 5 -4
9 -1 9 4 0 6 -15 12 -32 12 l-33 1 30 8 c17 4 23 8 15 9 -13 1 -13 2 0 12 12
8 11 9 -5 5 -35 -10 -128 -26 -173 -31 -49 -5 -476 -74 -509 -82 -34 -8 -38
-97 52 1186 13 189 25 345 27 346 7 5 353 63 357 59 2 -2 -3 -115 -13 -251 -9
-137 -26 -376 -36 -533 -11 -157 -22 -316 -25 -354 l-6 -68 48 6 c26 4 73 14
103 23 30 9 76 17 101 18 60 1 75 16 70 71 -2 28 1 44 8 44 7 0 11 38 11 115
0 91 -3 115 -14 115 -7 0 -19 -7 -26 -15 -17 -21 -40 -19 -40 4 0 24 58 51 70
32 11 -18 20 32 30 175 5 67 14 132 19 145 7 17 10 19 10 7 1 -10 8 -18 16
-18 8 0 15 -6 16 -12 3 -31 -4 -64 -15 -70 -8 -6 -8 -13 2 -28 6 -11 12 -27
12 -35 0 -8 8 -16 18 -16 16 -1 16 -2 0 -6 -22 -5 -24 -33 -3 -33 20 0 19 -17
-2 -30 -13 -8 -14 -13 -5 -16 16 -7 16 -31 0 -37 -10 -4 -9 -8 2 -16 9 -7 13
-24 11 -55 -2 -36 1 -46 13 -46 10 0 16 -9 16 -21 0 -11 5 -29 10 -40 10 -18
12 -18 35 -3 15 10 25 26 25 39 0 15 8 26 20 30 15 5 19 12 15 26 -4 12 -2 19
6 19 7 0 21 7 31 17 27 24 35 7 14 -30 -12 -22 -14 -33 -6 -35 9 -3 9 -7 -1
-13 -12 -8 -11 -12 4 -23 23 -18 22 -22 -13 -36 -16 -7 -30 -16 -30 -21 0 -12
27 -11 35 1 3 6 10 10 15 10 6 0 2 -9 -7 -20 -10 -11 -23 -20 -30 -20 -6 0
-14 -12 -16 -27 -4 -26 -4 -26 -6 5 -1 29 -4 32 -32 32 -29 0 -31 -2 -27 -27
3 -16 9 -37 13 -47 6 -13 5 -17 -2 -13 -7 5 -11 -20 -12 -76 -1 -103 22 -156
84 -190 22 -12 45 -29 52 -37 18 -22 16 -61 -4 -76 -38 -28 1 -32 132 -14 129
17 396 68 404 76 3 3 -8 4 -25 4 -49 -1 -63 3 -81 19 -15 15 -27 15 -100 5
l-83 -11 0 50 c0 28 -3 47 -7 44 -3 -4 -12 -2 -20 5 -11 8 -12 7 -7 -6 3 -9 2
-16 -4 -16 -6 0 -13 6 -15 13 -4 8 -6 7 -6 -4 -1 -9 -10 -15 -23 -15 -15 1
-23 -7 -29 -28 -9 -33 -30 -51 -40 -34 -4 6 -10 2 -14 -11 -9 -29 -56 -30 -48
-1 3 11 0 20 -6 20 -6 0 -11 8 -11 18 0 26 -30 83 -40 77 -13 -8 -33 93 -26
137 4 22 16 52 26 66 11 13 20 30 20 36 1 6 23 21 50 34 28 13 50 30 50 38 0
17 -12 18 -28 2 -9 -9 -12 -9 -12 1 0 7 8 15 19 18 19 5 38 34 43 67 2 14 -5
22 -22 27 -14 4 -19 7 -12 8 19 2 14 31 -5 31 -11 0 -5 7 15 17 23 11 29 18
21 24 -7 4 -17 5 -21 3 -4 -3 -5 1 -2 9 7 19 141 34 157 18 17 -17 -7 -34 -46
-35 -26 -1 -33 -5 -32 -20 1 -11 8 -22 16 -24 11 -3 11 -1 -1 8 -13 10 -12 11
3 6 10 -3 26 -6 35 -6 13 0 13 -2 -3 -14 -17 -12 -17 -16 -5 -31 12 -14 12
-18 -1 -26 -10 -6 -10 -9 -1 -9 6 0 12 -7 12 -15 0 -8 7 -15 15 -15 8 0 15 -5
15 -12 0 -8 3 -8 9 -2 7 6 61 668 61 737 0 11 -28 9 -110 -9 -41 -9 -86 -18
-100 -21 -23 -5 -24 -6 -5 -13 11 -5 31 -9 45 -9 23 0 23 1 5 9 -13 6 -15 9
-5 9 8 0 22 -4 30 -9 10 -6 11 -10 3 -10 -7 0 -13 -6 -13 -14 0 -8 6 -17 13
-19 9 -4 9 -8 -2 -15 -11 -8 -12 -14 -4 -24 7 -7 13 -31 16 -53 l4 -40 1 43
c1 23 6 42 11 42 14 0 24 -142 11 -174 -6 -16 -8 -37 -5 -47 5 -14 1 -19 -12
-19 -17 -1 -17 -1 0 -11 23 -13 22 -25 -4 -32 -25 -7 -16 -27 11 -27 30 0 17
-34 -16 -41 -27 -5 -26 -6 15 -13 51 -10 41 -20 -30 -30 -39 -6 -48 -4 -53 11
-5 12 1 25 19 40 l26 23 -43 1 -43 1 43 11 c46 11 57 27 18 27 -53 0 -69 18
-40 47 10 11 14 26 10 45 -4 22 -2 28 12 28 15 0 15 2 2 10 -12 7 -13 13 -3
28 9 15 9 22 0 31 -8 8 -4 11 16 11 15 0 27 5 27 10 0 6 -7 10 -15 10 -16 0
-35 58 -35 108 0 31 -6 36 -47 35 -7 -1 -10 4 -6 10 4 7 0 8 -13 3 -10 -4 -40
-10 -65 -13 -43 -5 -47 -3 -51 19 -3 14 -1 33 2 44 4 10 11 76 15 147 4 70 11
127 16 127 10 0 135 20 286 46 90 15 93 17 109 50 19 39 96 94 133 94 66 0 67
3 87 127 16 102 16 118 3 141 -12 23 -22 27 -67 30 -49 3 -56 0 -87 -31 -25
-25 -35 -44 -35 -66 0 -34 28 -56 60 -46 17 5 20 2 20 -22 0 -65 -8 -73 -66
-73 -65 0 -101 15 -120 51 -28 55 -9 124 53 190 63 68 120 93 210 94 71 0 73
0 79 28 3 16 4 30 2 32 -2 2 -89 -10 -194 -27 l-191 -30 -35 -210 c-20 -115
-38 -212 -41 -215 -9 -8 -100 -24 -106 -18 -2 3 11 99 30 214 l36 209 -36 -5
c-20 -3 -37 -7 -39 -8 -10 -8 -70 -410 -63 -419 6 -8 -3 -12 -30 -14 -21 -1
-50 -7 -64 -12 -32 -12 -36 -3 -25 61 14 88 -14 113 -110 97 -88 -16 -124 -91
-40 -83 l42 4 -7 -47 c-4 -26 -9 -49 -11 -51 -11 -11 -117 -12 -143 -1 -63 26
-65 118 -4 189 19 23 48 48 64 57 19 9 27 19 22 27 -4 7 0 7 10 -2 11 -9 17
-10 17 -2 0 19 -48 33 -71 21 -11 -6 -23 -9 -27 -6 -5 3 -8 -12 -8 -32 1 -20
-3 -37 -7 -37 -5 0 -15 -11 -24 -25 -8 -14 -12 -17 -9 -7 3 10 6 50 6 88 0 49
3 68 11 63 8 -4 9 1 4 16 -5 15 -2 26 6 31 9 6 -1 7 -26 4 -22 -2 -35 -2 -28
1 7 3 9 12 6 21 -4 11 -2 14 5 9 20 -12 13 5 -10 23 -17 14 -18 18 -5 18 9 0
14 -4 11 -9 -3 -4 -1 -8 4 -8 5 0 14 11 20 25 15 32 15 38 0 29 -7 -4 -8 -3
-4 4 4 7 1 12 -8 12 -22 0 -27 16 -5 17 10 1 24 -7 29 -18 9 -16 15 -17 31 -9
11 6 29 8 39 5 11 -4 20 -2 20 3 0 5 12 7 28 5 15 -3 113 9 217 26 105 16 267
41 360 55 188 28 454 70 735 117 141 24 189 36 203 50 18 19 15 45 -4 34 -15
-10 -10 12 6 29 8 8 15 22 15 31 0 10 6 15 18 13 9 -2 16 -10 14 -17 -1 -7 2
-10 8 -6 6 4 8 15 5 26 -4 10 -2 19 4 19 6 0 7 8 4 17 -4 11 -8 12 -11 5 -2
-7 -9 -12 -15 -12 -6 0 0 11 13 25 36 38 52 33 35 -10z m-1850 -455 c4 -6 2
-16 -3 -23 -5 -7 -12 -28 -16 -48 -5 -30 -10 -36 -25 -32 -10 3 -22 0 -26 -7
-4 -6 -22 -101 -41 -212 -19 -110 -36 -204 -39 -208 -2 -4 -31 -10 -62 -14
-51 -5 -74 -1 -193 39 l-135 44 3 33 c5 50 39 119 79 160 24 24 72 52 144 84
60 26 107 49 105 51 -3 4 -348 -46 -352 -51 -1 0 -17 -95 -37 -209 -19 -115
-36 -210 -38 -212 -2 -2 -28 -8 -56 -13 -46 -8 -53 -7 -53 7 0 9 16 104 34
211 19 107 33 196 32 197 -3 4 -249 -37 -253 -41 -2 -2 10 -9 27 -16 20 -8 49
-10 86 -5 56 7 57 6 51 -17 -3 -12 -18 -97 -33 -188 -15 -91 -28 -166 -29
-168 -3 -4 -109 -21 -112 -18 -2 2 8 65 22 142 14 76 25 142 25 145 0 4 -19 9
-42 12 -46 6 -88 33 -103 65 -13 28 -21 28 -50 -4 -32 -35 -51 -100 -34 -120
15 -19 25 -18 48 5 11 11 43 24 72 29 l51 10 -6 -56 c-9 -74 -35 -128 -87
-181 -84 -84 -232 -124 -308 -84 -76 40 -90 96 -62 249 l12 72 51 6 c28 4 53
5 55 2 3 -3 -1 -38 -7 -78 -17 -97 -15 -127 9 -151 39 -39 136 -17 181 40 l22
28 -57 5 c-44 4 -61 11 -76 29 -26 32 -24 95 6 159 21 46 22 53 7 48 -9 -2
-69 -12 -132 -22 -63 -9 -116 -17 -117 -18 -1 0 -18 -95 -38 -211 -20 -115
-38 -211 -40 -214 -7 -7 -98 -21 -103 -16 -3 3 11 98 30 212 20 115 35 209 35
209 -1 1 -110 -16 -242 -37 -132 -21 -243 -39 -248 -39 -6 0 1 79 8 88 3 3 14
5 745 122 1054 169 1244 200 1270 209 35 12 38 12 45 1z m-1726 -414 c51 -27
63 -83 32 -151 -23 -51 -68 -89 -152 -130 l-66 -32 93 -22 c52 -13 94 -25 94
-28 0 -14 -45 -83 -54 -83 -6 0 -80 16 -164 36 l-153 36 7 37 c3 20 8 43 10
51 2 10 44 28 109 48 131 42 169 66 173 111 4 40 -11 53 -53 45 -68 -12 -85
-25 -96 -70 -8 -29 -17 -44 -28 -44 -9 0 -33 -3 -53 -6 -33 -6 -38 -4 -38 12
1 53 63 140 123 171 61 31 172 41 216 19z m1105 -487 c-6 -88 -15 -164 -20
-168 -5 -5 -115 -25 -244 -46 -129 -20 -245 -39 -256 -42 -20 -4 -22 -13 -29
-130 -3 -68 -5 -127 -2 -129 2 -2 100 11 217 31 117 19 220 35 228 35 13 0 14
-19 8 -130 -7 -122 -19 -190 -34 -190 -25 0 -438 -73 -444 -78 -3 -4 -9 -69
-13 -145 l-7 -138 23 5 c13 3 121 22 239 41 118 20 226 39 239 42 l23 6 -7
-134 c-3 -74 -11 -150 -17 -170 l-10 -36 -436 -71 c-239 -40 -437 -71 -439
-69 -3 3 13 247 47 707 5 74 19 279 30 455 11 176 24 331 28 344 7 24 18 27
432 97 234 39 432 72 440 73 14 1 14 -17 4 -160z m846 41 c0 -16 -4 -30 -10
-30 -5 0 -10 -17 -10 -37 0 -30 6 -43 30 -61 22 -18 27 -28 21 -40 -4 -10 -6
-22 -4 -29 5 -15 -69 -38 -92 -29 -10 3 -15 12 -11 21 3 9 0 15 -9 15 -11 0
-15 11 -15 40 0 22 5 40 10 40 13 0 13 77 0 82 -7 2 -6 13 2 30 11 23 19 28
51 28 35 0 37 -2 37 -30z m-1970 -104 c0 -32 -69 -1057 -90 -1331 -13 -180 3
-165 -196 -197 -92 -15 -170 -26 -171 -24 -2 2 8 167 22 367 13 200 36 540 51
754 15 215 30 394 35 399 6 7 281 60 337 65 7 1 12 -12 12 -33z m3875 -935 c6
-11 -6 -15 -110 -35 -44 -9 -93 -19 -110 -22 -16 -3 -40 -7 -52 -8 -13 -2 -26
-6 -30 -9 -3 -4 -17 -7 -30 -7 -14 0 -21 -4 -18 -10 3 -5 15 -10 25 -10 10 0
21 -4 25 -9 3 -6 -10 -5 -31 1 -32 8 -67 7 -184 -6 -8 -1 -25 -8 -37 -14 -12
-7 -29 -9 -37 -6 -9 3 -16 1 -16 -5 0 -6 -15 -11 -32 -11 -18 0 -62 -7 -97
-15 -35 -9 -66 -14 -68 -11 -3 2 9 7 26 11 17 4 33 11 36 16 4 5 18 9 32 9 15
0 33 10 45 25 21 27 53 33 61 13 3 -8 6 -6 6 5 1 17 10 21 44 17 10 -1 24 3
30 8 7 5 48 13 92 17 44 3 152 19 240 34 194 34 183 33 190 22z m-2076 -332
c30 -11 31 -13 28 -56 -3 -24 -8 -48 -14 -54 -8 -8 -126 -35 -235 -53 -31 -6
-37 -4 -32 9 5 11 -1 15 -20 15 -14 0 -26 6 -26 13 0 9 -2 9 -9 -1 -5 -9 -26
-12 -67 -10 -58 3 -59 3 -61 34 -2 40 15 49 113 65 43 7 120 20 169 30 113 21
115 21 154 8z m546 -156 c14 -35 19 -38 55 -38 39 -1 80 -26 80 -50 0 -13 55
-65 69 -65 5 0 30 -24 55 -52 62 -71 62 -92 -1 -189 -13 -19 -23 -50 -23 -70
0 -42 -18 -99 -31 -99 -5 0 -9 4 -9 9 0 5 -9 13 -21 16 -11 4 -27 22 -35 40
-7 18 -25 43 -40 54 -28 22 -74 29 -74 11 0 -5 -6 -10 -14 -10 -8 0 -18 -9
-21 -20 -3 -11 -10 -20 -15 -20 -4 0 -13 -14 -19 -30 -12 -36 -25 -35 -126 7
-33 14 -74 27 -90 30 -29 4 -31 8 -33 50 -1 36 6 60 38 119 21 40 48 82 60 94
11 11 20 30 20 43 0 40 12 68 26 63 8 -3 14 0 15 7 2 28 17 -42 18 -85 1 -27
5 -48 9 -48 5 0 23 18 42 40 35 41 47 42 85 3 16 -16 18 -16 31 2 32 43 -2
103 -50 86 -25 -9 -56 -3 -56 10 0 5 4 9 9 9 5 0 9 20 9 45 -1 25 -5 45 -10
45 -4 0 -8 7 -8 15 0 8 9 15 20 15 14 0 25 -12 35 -37z"/>
<path d="M5342 4876 c-83 -37 -110 -60 -114 -95 -3 -23 4 -27 77 -51 55 -19
82 -24 86 -16 3 6 12 47 19 90 6 44 14 86 17 93 7 18 -3 16 -85 -21z"/>
<path d="M4564 4846 c-44 -46 -56 -82 -70 -201 -7 -60 4 -85 39 -85 17 0 19
-5 13 -37 -3 -21 -6 -44 -6 -50 0 -30 -99 -4 -134 35 -40 45 -28 202 23 303
l28 55 -56 -9 -56 -9 -39 -227 c-21 -124 -40 -238 -43 -253 -4 -22 0 -29 26
-42 46 -24 83 -37 77 -27 -6 10 26 21 62 21 12 0 22 5 22 10 0 6 14 10 30 10
27 0 30 3 30 30 0 17 4 30 9 30 4 0 24 11 44 24 19 13 43 27 54 30 10 3 1 3
-20 0 -21 -3 -46 -8 -55 -11 -10 -4 -6 3 8 15 16 13 25 31 25 49 0 26 2 28 38
26 20 -1 37 1 37 6 0 5 -6 9 -12 8 -47 -1 -49 1 -43 51 4 26 13 60 21 76 7 16
11 32 8 37 -3 5 0 8 8 7 7 -2 12 5 12 14 -1 10 1 16 5 15 3 -1 25 12 49 27
l43 29 -43 44 c-55 56 -79 56 -134 -1z"/>
<path d="M3413 4697 c-70 -11 -80 -26 -34 -53 29 -17 51 -51 51 -80 0 -11 9
-14 37 -12 36 3 38 5 45 48 4 25 10 60 13 78 6 30 4 32 -22 31 -15 -1 -56 -6
-90 -12z"/>
<path d="M4310 3971 l-35 -6 0 -65 c0 -54 3 -65 18 -68 10 -2 17 3 17 12 0 8
5 18 12 22 8 5 9 0 6 -14 -7 -24 6 -39 17 -21 4 5 13 8 20 5 8 -3 11 2 8 15
-3 10 2 30 10 43 16 24 13 66 -5 66 -5 0 -6 5 -3 10 7 11 -9 11 -65 1z"/>
<path d="M5160 3950 c0 -35 71 -71 235 -119 272 -79 360 -143 412 -296 l13
-40 -6 40 c-15 100 -87 196 -188 249 -27 14 -126 51 -221 81 -94 30 -188 66
-208 80 -34 23 -37 23 -37 5z"/>
<path d="M2747 4451 c-78 -38 -106 -62 -107 -93 0 -13 21 -24 82 -42 45 -14
83 -25 84 -23 2 3 34 180 34 190 0 12 -11 8 -93 -32z"/>
<path d="M1975 3900 c-220 -38 -401 -69 -402 -69 -2 -1 -3 -8 -3 -17 0 -11 6
-15 18 -12 9 3 203 36 429 74 287 48 413 73 413 82 0 18 -22 16 -455 -58z"/>
<path d="M2070 2728 c-205 -35 -275 -54 -240 -66 6 -2 125 15 265 39 185 31
255 46 255 56 0 18 -11 17 -280 -29z"/>
<path d="M11627 6793 c-5 -368 -7 -417 -26 -498 -54 -233 -75 -395 -51 -395 7
0 3 -9 -10 -20 -44 -38 -6 -20 80 39 106 72 118 76 167 56 97 -41 182 -175
154 -243 -7 -17 -23 -37 -35 -45 -40 -27 -281 -229 -343 -288 -35 -33 -63 -64
-63 -70 0 -6 -4 -8 -9 -4 -16 9 -23 -15 -9 -32 12 -15 11 -15 -9 -5 -18 10
-21 18 -16 46 8 51 -13 101 -61 143 -64 56 -58 78 31 123 108 55 150 93 158
140 4 22 11 42 16 46 5 3 9 12 9 20 0 12 -25 3 -94 -34 l-94 -51 -7 37 c-9 49
-31 72 -70 72 -35 0 -39 -6 -69 -100 -23 -75 -26 -95 -16 -128 10 -35 5 -39
-24 -17 -32 24 -55 18 -114 -34 -31 -27 -68 -52 -82 -55 -51 -14 -110 -49
-110 -66 0 -22 57 -79 87 -86 13 -4 35 -4 48 -2 34 7 31 -8 -5 -27 -16 -9 -30
-18 -30 -21 0 -7 66 -34 82 -34 7 1 -2 7 -19 15 -18 8 -33 18 -33 22 0 5 18
19 40 33 22 14 40 28 40 32 0 5 5 8 11 8 6 0 38 13 69 29 64 33 73 28 58 -28
-7 -23 -18 -36 -39 -44 -16 -6 -29 -15 -29 -19 0 -11 14 -10 27 3 14 14 43
-59 43 -111 l0 -40 53 37 c28 21 66 53 84 73 28 31 33 33 39 17 7 -20 -9 -59
-40 -94 l-19 -23 28 0 29 0 -30 -31 c-44 -46 -84 -67 -181 -95 -130 -37 -168
-60 -269 -159 -78 -78 -94 -99 -114 -155 -13 -37 -35 -74 -49 -87 -25 -21 -26
-24 -25 -145 1 -162 11 -248 32 -271 14 -16 17 -41 17 -154 0 -92 -4 -136 -12
-141 -7 -4 -15 -27 -19 -51 -4 -23 -17 -55 -30 -71 -29 -34 -74 -122 -74 -144
0 -10 -11 -56 -24 -104 -13 -48 -26 -124 -30 -169 -8 -121 -70 -276 -163 -409
-44 -64 -83 -166 -83 -222 0 -39 79 -56 136 -28 31 16 111 22 369 31 116 4
163 9 170 19 6 7 18 12 28 10 9 -1 17 4 17 12 0 8 -4 14 -10 14 -5 0 -10 9
-10 21 0 11 -4 18 -9 15 -18 -11 -31 564 -13 589 11 17 30 12 66 -17 21 -17
37 -41 41 -60 4 -18 14 -42 21 -53 8 -11 14 -31 14 -46 0 -14 11 -41 25 -60
41 -56 76 -132 79 -172 3 -21 12 -47 22 -58 10 -11 12 -19 6 -19 -7 0 -12 -18
-12 -45 0 -25 5 -45 10 -45 6 0 10 -30 10 -70 0 -78 10 -91 80 -105 19 -4 58
-18 86 -31 28 -13 54 -24 58 -24 4 0 16 -9 28 -19 23 -22 19 -48 -9 -58 -10
-4 -24 -13 -31 -20 -11 -11 -139 -20 -189 -14 -7 1 -13 -6 -13 -16 0 -15 -11
-19 -68 -21 -37 -2 -102 0 -146 3 -65 6 -79 11 -83 26 -4 13 -14 19 -34 19
-16 0 -29 -4 -29 -8 0 -11 54 -62 65 -62 28 0 185 -222 185 -262 0 -8 14 -43
30 -77 17 -35 36 -95 42 -137 l12 -75 -49 -95 c-41 -79 -63 -108 -134 -176
-48 -45 -113 -107 -146 -138 -33 -31 -107 -91 -165 -133 -58 -41 -139 -108
-181 -149 -170 -166 -424 -404 -451 -425 -16 -11 -26 -23 -21 -25 18 -8 176 4
162 12 -12 8 -12 11 1 23 25 22 88 39 120 32 33 -7 55 -29 45 -45 -5 -7 112
-10 398 -10 l404 1 72 -32 c69 -31 94 -51 36 -29 -24 9 -26 9 -16 -4 10 -11 9
-15 -6 -19 -14 -4 -13 -5 5 -6 12 0 22 -5 22 -11 0 -5 -10 -10 -22 -10 -21 -1
-21 -2 -5 -11 9 -5 22 -7 27 -4 6 3 10 2 10 -4 0 -5 -8 -15 -17 -21 -13 -8
-14 -13 -5 -16 6 -3 12 -15 12 -26 0 -12 7 -26 17 -33 14 -11 13 -13 -10 -19
-35 -8 -34 -22 1 -34 19 -7 21 -11 8 -11 -16 -1 -16 -3 4 -19 24 -19 20 -42
-6 -42 -10 0 -14 -8 -12 -22 3 -22 13 -27 91 -43 l28 -6 -7 -67 c-4 -43 -12
-70 -22 -76 -11 -6 -11 -10 -2 -16 7 -4 1 -9 -18 -13 -36 -7 -52 -37 -20 -37
16 0 18 -3 9 -13 -9 -11 3 -16 62 -26 39 -7 80 -15 90 -17 21 -6 23 -24 2 -24
-14 0 -17 -5 -19 -40 -1 -8 -12 -20 -26 -27 -20 -10 86 -13 583 -13 l607 0 0
3600 0 3600 -584 0 -584 0 -5 -407z m-653 -3423 c38 -14 33 -48 -13 -99 -27
-30 -45 -41 -57 -38 -11 3 -31 8 -46 11 -62 14 -19 103 62 129 23 8 27 8 54
-3z"/>
<path d="M9096 7008 c-72 -8 -125 -27 -205 -72 -56 -33 -168 -171 -169 -210 0
-5 -5 -12 -12 -16 -19 -12 -21 -91 -3 -143 16 -45 20 -48 73 -64 66 -20 106
-18 139 5 13 9 31 22 40 27 9 6 29 20 44 33 16 12 32 22 37 22 4 0 39 17 77
39 64 36 78 39 233 59 91 11 180 18 198 15 22 -4 54 -24 92 -59 32 -30 60 -54
63 -54 4 0 11 9 17 21 9 16 7 33 -6 75 -14 47 -32 71 -113 152 -89 90 -102 99
-181 129 -137 53 -179 58 -324 41z m184 -57 c3 -3 34 -8 70 -10 87 -5 110 -14
110 -46 0 -15 -7 -28 -17 -32 -10 -4 -28 -17 -40 -30 -22 -23 -56 -29 -100
-17 -24 7 -32 39 -11 46 24 8 -18 37 -58 40 -35 3 -39 6 -36 27 2 13 -2 28
-10 33 -8 5 6 6 37 2 28 -4 52 -10 55 -13z"/>
<path d="M9371 6277 c-83 -32 -86 -109 -6 -143 45 -18 113 -1 159 40 41 38 44
54 17 87 -14 18 -30 23 -77 26 -32 1 -74 -3 -93 -10z"/>
<path d="M8882 6245 c-64 -54 -29 -131 68 -146 90 -14 144 14 159 84 7 31 5
36 -26 57 -24 16 -52 24 -101 28 -63 4 -70 2 -100 -23z"/>
<path d="M7350 5334 c-98 -34 -100 -36 -100 -59 0 -19 10 -26 59 -43 53 -18
62 -18 80 -5 13 9 21 25 21 44 0 20 5 29 16 29 23 0 76 -60 69 -78 -4 -10 0
-12 11 -8 8 3 22 6 30 6 9 0 12 5 9 10 -3 6 -1 10 4 10 15 0 8 34 -11 54 -9 9
-27 20 -40 25 -32 12 -129 22 -148 15z"/>
<path d="M6775 5067 c-18 -15 -28 -36 -32 -65 -3 -23 -2 -42 3 -42 5 0 17 -15
27 -32 32 -59 60 -71 159 -72 48 -1 88 0 88 1 0 1 -17 20 -37 43 -38 42 -84
75 -67 49 9 -15 -87 39 -99 55 -4 6 -5 28 -2 49 6 43 -3 46 -40 14z"/>
<path d="M6485 4966 c-17 -12 -17 -14 -2 -37 19 -27 23 -64 6 -53 -30 18 72
-145 122 -196 44 -45 69 -62 119 -78 35 -12 65 -21 66 -19 1 1 -19 20 -46 42
-27 22 -49 45 -50 52 0 6 -12 21 -27 33 -16 12 -27 25 -26 28 1 4 -4 13 -10
21 -10 12 -9 12 10 0 12 -7 18 -16 13 -19 -5 -3 5 -11 23 -19 18 -7 50 -21 72
-31 55 -25 104 -40 129 -40 30 1 -39 30 -70 30 -12 0 -29 8 -36 19 -7 10 -22
20 -33 23 -14 2 -20 11 -20 30 1 23 -2 25 -18 16 -27 -14 -47 -3 -47 27 0 33
25 43 51 19 11 -10 29 -18 41 -19 12 -1 24 -7 26 -13 2 -7 13 -12 25 -12 12
-1 33 -7 47 -15 14 -8 41 -14 60 -14 l35 1 -30 10 c-17 5 -38 22 -46 37 -16
27 -42 41 -210 105 -59 22 -88 44 -82 62 8 23 -64 31 -92 10z"/>
<path d="M9169 4912 c-6 -35 -4 -84 3 -88 4 -3 8 -12 8 -20 0 -20 46 -61 90
-81 19 -8 45 -24 57 -36 13 -11 24 -19 26 -16 26 30 57 88 57 104 -1 24 -22
55 -39 55 -6 0 -11 6 -12 13 0 6 -15 24 -32 38 -24 20 -47 27 -94 32 -35 3
-63 2 -64 -1z"/>
<path d="M8800 1851 c0 -6 -3 -10 -7 -10 -21 3 -32 -3 -38 -21 -4 -12 0 -112
9 -223 17 -218 36 -492 43 -625 4 -69 2 -86 -12 -102 -35 -39 -15 -177 43
-300 38 -80 59 -107 145 -193 101 -100 83 -128 -55 -87 -118 35 -155 39 -313
28 -118 -8 -153 -14 -163 -27 -14 -18 -10 -82 15 -191 24 -109 13 -100 117
-100 51 0 106 4 122 9 16 5 48 14 72 21 23 7 42 17 42 22 0 4 14 8 30 8 17 0
30 -5 30 -11 0 -5 4 -8 9 -5 5 3 12 -5 15 -19 8 -32 46 -33 130 -5 33 11 72
20 89 20 24 0 28 -3 24 -20 -5 -18 0 -20 55 -20 45 0 66 5 85 20 32 25 70 25
203 0 84 -16 147 -20 312 -20 l208 0 0 70 c0 97 -4 100 -207 106 -188 5 -243
11 -243 26 0 6 27 39 60 74 51 53 60 68 60 98 0 22 10 51 25 74 13 20 27 51
30 67 8 43 -30 113 -83 149 -36 26 -52 30 -110 30 -64 1 -84 -5 -151 -45 -51
-29 -92 -74 -116 -126 -21 -43 -30 -53 -50 -53 -36 0 -61 34 -85 114 -12 39
-32 107 -46 151 -31 101 -42 246 -24 340 10 54 24 84 67 147 46 68 73 124 89
186 2 7 10 15 17 18 8 3 93 83 189 178 156 153 201 207 185 222 -2 3 -141 5
-308 5 -167 0 -331 5 -364 10 -113 19 -145 21 -145 10z"/>
<path d="M7065 1410 c15 -17 16 -22 4 -37 -13 -16 -12 -17 2 -5 14 10 18 10
23 -4 9 -22 7 -164 -1 -164 -5 0 -10 -43 -11 -96 l-4 -97 50 7 c86 11 149 34
155 56 3 11 11 20 17 20 7 0 10 -7 6 -15 -7 -18 3 -19 42 -2 l31 13 -91 99
c-121 133 -229 245 -236 245 -3 0 3 -9 13 -20z"/>
</g>
</svg>
